<svg xmlns="http://www.w3.org/2000/svg" viewBox="0 0 480 258">
  <defs>
    <linearGradient id="scGrad" x1="22" y1="0" x2="440" y2="0" gradientUnits="userSpaceOnUse">
      <stop offset="0%" stop-color="#1060f0" />
      <stop offset="100%" stop-color="#00d878" />
    </linearGradient>
  </defs>
  <path
    d="M 218,44 C 176,28 104,30 68,58 C 32,86 50,124 88,140 C 126,156 194,158 222,186 C 210,212 174,227 130,228 C 96,228 62,214 44,194"
    fill="none"
    stroke="url(#scGrad)"
    stroke-width="40"
    stroke-linecap="round"
  />
  <path
    d="M 420,50 C 390,26 334,26 302,56 C 270,86 262,132 271,168 C 280,204 306,226 338,230 C 366,232 402,220 420,196"
    fill="none"
    stroke="url(#scGrad)"
    stroke-width="40"
    stroke-linecap="round"
  />
</svg>
